<svg width="256" height="256" viewBox="0 0 256 256" fill="none" xmlns="http://www.w3.org/2000/svg">
<path d="M235.01 128C235.01 186.993 186.994 235.009 128.001 235.009C68.9435 235.009 20.9275 186.993 20.9275 128C20.9275 69.0073 68.9435 20.9912 128.001 20.9912C186.994 20.9912 235.01 69.0073 235.01 128Z" fill="#E9B522"/>
<path fill-rule="evenodd" clip-rule="evenodd" d="M128 256C57.3882 256 0 198.612 0 128C0 57.4524 57.3882 0 128 0C198.548 0 256 57.4524 256 128C256 198.612 198.548 256 128 256ZM128 20.991C68.9428 20.991 20.9268 69.007 20.9268 128C20.9268 186.993 68.9428 235.009 128 235.009C186.993 235.009 235.009 186.993 235.009 128C235.009 69.007 186.993 20.991 128 20.991Z" fill="#F7DE61"/>
<path d="M131.852 255.936C130.568 255.979 129.284 256 128 256C57.3882 256 0 198.612 0 128C0 57.4524 57.3882 0 128 0C129.284 0 130.568 0.0214014 131.852 0.0641965C63.1013 2.11836 7.7673 58.7362 7.7673 128C7.7673 197.264 63.1013 253.882 131.852 255.936Z" fill="#FFF2BD"/>
<path d="M235.01 128C235.01 186.993 186.994 235.009 128.001 235.009C126.846 235.009 125.69 234.988 124.535 234.945C181.987 233.148 228.142 185.838 228.142 128C228.142 70.1627 181.987 22.8528 124.535 21.0554C125.69 21.0126 126.846 20.9912 128.001 20.9912C186.994 20.9912 235.01 69.0073 235.01 128Z" fill="#CE9811"/>
<path fill-rule="evenodd" clip-rule="evenodd" d="M54.7843 140.285C53.0675 141.962 50.7676 143.017 47.8845 143.45V148.502H43.2453V143.529C41.214 143.384 39.3269 142.991 37.5839 142.349C35.8409 141.72 34.3142 140.855 33.0037 139.754L35.0087 135.469C37.656 137.54 40.5063 138.68 43.5598 138.889V129.414C41.5285 128.903 39.8183 128.34 38.4292 127.724C37.0269 127.095 35.854 126.164 34.9104 124.932C33.98 123.714 33.5148 122.115 33.5148 120.136C33.5148 118.498 33.921 117.004 34.7335 115.654C35.5592 114.304 36.7058 113.184 38.1736 112.293C39.6414 111.388 41.3319 110.818 43.2453 110.582V105.53H47.8845V110.523C49.6537 110.746 51.3114 111.172 52.8578 111.801C54.4042 112.443 55.7082 113.249 56.7697 114.219L54.7646 118.504C52.5499 116.683 50.1516 115.589 47.5699 115.222V125.09C49.6012 125.614 51.2852 126.171 52.622 126.761C53.9587 127.35 55.0857 128.235 56.0031 129.414C56.9073 130.607 57.3594 132.16 57.3594 134.073C57.3594 136.524 56.5011 138.594 54.7843 140.285ZM40.4735 122.397C41.2074 123.039 42.2362 123.589 43.5598 124.048V115.261C42.2624 115.536 41.2402 116.067 40.4932 116.853C39.7462 117.653 39.3727 118.642 39.3727 119.821C39.3727 120.883 39.7397 121.741 40.4735 122.397ZM50.4989 137.14C51.1542 136.393 51.4818 135.43 51.4818 134.25C51.4818 133.307 51.1542 132.547 50.4989 131.97C49.8306 131.393 48.8542 130.908 47.5699 130.515V138.673C48.8542 138.398 49.8306 137.887 50.4989 137.14Z" fill="#CE9811"/>
<path fill-rule="evenodd" clip-rule="evenodd" d="M53.9193 138.927C52.2025 140.618 49.9026 141.673 47.0195 142.092V147.144H42.3803V142.191C40.349 142.033 38.4619 141.64 36.7189 141.011C34.9759 140.369 33.4492 139.504 32.1387 138.416L34.1438 134.131C36.7779 136.189 39.6282 137.329 42.6948 137.551V128.076C40.6635 127.552 38.9533 126.982 37.5642 126.366C36.1619 125.737 34.989 124.813 34.0455 123.595C33.115 122.363 32.6498 120.757 32.6498 118.778C32.6498 117.14 33.056 115.646 33.8685 114.297C34.6942 112.947 35.8409 111.826 37.3086 110.935C38.7764 110.044 40.4669 109.474 42.3803 109.225V104.173H47.0195V109.186C48.7887 109.395 50.4465 109.821 51.9929 110.463C53.5393 111.092 54.8432 111.892 55.9047 112.862L53.8996 117.147C51.6849 115.325 49.2867 114.231 46.705 113.864V123.752C48.7362 124.263 50.4202 124.813 51.757 125.403C53.0937 125.993 54.2207 126.884 55.1381 128.076C56.0423 129.256 56.4944 130.802 56.4944 132.716C56.4944 135.179 55.6361 137.25 53.9193 138.927ZM49.6143 135.782C50.2826 135.048 50.6168 134.085 50.6168 132.893C50.6168 131.962 50.2826 131.209 49.6143 130.632C48.9459 130.055 47.9762 129.564 46.705 129.158V137.316C47.9762 137.04 48.9459 136.529 49.6143 135.782ZM39.6086 121.039C40.3293 121.694 41.3581 122.251 42.6948 122.71V113.923C41.3974 114.185 40.3752 114.716 39.6282 115.515C38.8812 116.302 38.5077 117.284 38.5077 118.464C38.5077 119.525 38.8747 120.384 39.6086 121.039Z" fill="#F7DE61"/>
<path fill-rule="evenodd" clip-rule="evenodd" d="M70.3019 195.697C68.5851 197.374 66.2852 198.429 63.402 198.862V203.914H58.7629V198.94C56.7316 198.796 54.8444 198.403 53.1015 197.761C51.3585 197.132 49.8317 196.267 48.5212 195.166L50.5263 190.881C53.1735 192.951 56.0239 194.091 59.0774 194.301V184.826C57.0461 184.315 55.3359 183.751 53.9467 183.135C52.5445 182.506 51.3716 181.576 50.428 180.344C49.4976 179.125 49.0323 177.526 49.0323 175.548C49.0323 173.909 49.4386 172.416 50.2511 171.066C51.0767 169.716 52.2234 168.595 53.6912 167.704C55.159 166.8 56.8495 166.23 58.7629 165.994V160.942H63.402V165.935C65.1712 166.158 66.829 166.584 68.3754 167.213C69.9218 167.855 71.2258 168.661 72.2873 169.631L70.2822 173.916C68.0675 172.094 65.6692 171 63.0875 170.633V180.501C65.1188 181.026 66.8028 181.583 68.1395 182.172C69.4762 182.762 70.6033 183.647 71.5206 184.826C72.4249 186.019 72.877 187.572 72.877 189.485C72.877 191.936 72.0186 194.006 70.3019 195.697ZM55.9911 177.808C56.725 178.45 57.7538 179.001 59.0774 179.459V170.673C57.78 170.948 56.7578 171.478 56.0108 172.265C55.2638 173.064 54.8903 174.054 54.8903 175.233C54.8903 176.295 55.2572 177.153 55.9911 177.808ZM66.0165 192.551C66.6718 191.804 66.9994 190.841 66.9994 189.662C66.9994 188.718 66.6718 187.958 66.0165 187.382C65.3481 186.805 64.3718 186.32 63.0875 185.927V194.085C64.3718 193.81 65.3481 193.298 66.0165 192.551Z" fill="#CE9811"/>
<path fill-rule="evenodd" clip-rule="evenodd" d="M69.4369 194.339C67.7201 196.03 65.4202 197.085 62.5371 197.504V202.556H57.8979V197.602C55.8666 197.445 53.9795 197.052 52.2365 196.423C50.4935 195.781 48.9668 194.916 47.6562 193.828L49.6613 189.543C52.2954 191.6 55.1458 192.74 58.2124 192.963V183.488C56.1811 182.964 54.4709 182.394 53.0818 181.778C51.6795 181.149 50.5066 180.225 49.563 179.006C48.6326 177.774 48.1673 176.169 48.1673 174.19C48.1673 172.552 48.5736 171.058 49.3861 169.708C50.2117 168.358 51.3584 167.238 52.8262 166.347C54.294 165.456 55.9845 164.885 57.8979 164.636V159.584H62.5371V164.597C64.3062 164.807 65.964 165.233 67.5104 165.875C69.0568 166.504 70.3608 167.303 71.4223 168.273L69.4172 172.558C67.2025 170.737 64.8042 169.643 62.2225 169.276V179.163C64.2538 179.675 65.9378 180.225 67.2745 180.815C68.6113 181.404 69.7383 182.296 70.6556 183.488C71.5599 184.668 72.012 186.214 72.012 188.127C72.012 190.591 71.1536 192.662 69.4369 194.339ZM65.1319 191.194C65.8002 190.46 66.1344 189.497 66.1344 188.304C66.1344 187.374 65.8002 186.62 65.1319 186.044C64.4635 185.467 63.4937 184.976 62.2225 184.569V192.727C63.4937 192.452 64.4635 191.941 65.1319 191.194ZM55.1261 176.451C55.8469 177.106 56.8757 177.663 58.2124 178.122V169.335C56.915 169.597 55.8928 170.128 55.1458 170.927C54.3988 171.713 54.0253 172.696 54.0253 173.876C54.0253 174.937 54.3923 175.795 55.1261 176.451Z" fill="#F7DE61"/>
<path d="M113.452 65.3975C112.97 74.0647 109.409 79.299 97.1816 83.2993C85.0106 87.2712 80.8259 88.789 78.0314 94.8461C77.1661 83.9802 82.8544 77.5542 93.6211 73.9654C102.714 70.9297 109.367 70.5467 113.452 65.3975Z" fill="#146A31"/>
<path d="M113.454 65.3975C112.972 74.0647 109.411 79.299 97.1833 83.2993C85.0124 87.2712 80.8277 88.789 78.0332 94.8461C78.8134 86.7463 83.4236 83.0439 94.1902 79.4551C103.283 76.4194 109.922 74.1072 113.454 65.3975Z" fill="#044512"/>
<path fill-rule="evenodd" clip-rule="evenodd" d="M113.168 65.1705L113.877 64.2769L113.806 65.4117C113.551 70.1921 112.374 73.5682 109.991 76.3343C107.437 79.3274 103.394 81.6538 97.2947 83.6398C84.7691 87.7393 81.0383 89.172 78.3573 95.0022L77.7757 96.2647L77.6623 94.8745C77.2367 89.4274 78.3857 85.0441 81.1802 81.4552C83.8187 78.065 87.8473 75.5116 93.5072 73.625C95.9329 72.8164 98.2167 72.1781 100.231 71.6248C105.82 70.0786 110.232 68.8587 113.168 65.1705ZM113.012 66.4472C109.962 69.6814 105.707 70.8588 100.43 72.3199C98.4153 72.8731 96.1315 73.5115 93.7342 74.3059C82.9534 77.8947 78.0169 84.0086 78.3148 93.4844C81.1235 88.3777 85.4642 86.7463 97.0677 82.9589C109.295 78.9586 112.374 73.8377 113.012 66.4472Z" fill="#052D10"/>
<path d="M188.209 93.3712C184.947 87.5552 180.634 86.392 168.194 83.3989C155.682 80.4058 151.711 75.4693 150.533 66.873C155.03 71.6677 161.683 71.5258 170.988 73.8097C182.01 76.519 188.209 82.4627 188.209 93.3712Z" fill="#146A31"/>
<path d="M188.209 93.3712C184.947 87.5552 180.634 86.392 168.194 83.3989C155.682 80.4058 151.711 75.4693 150.533 66.873C154.321 75.0438 160.959 77.0155 170.279 79.2994C181.301 82.0087 185.798 83.1294 188.209 93.3712Z" fill="#044512"/>
<path fill-rule="evenodd" clip-rule="evenodd" d="M188.577 93.3711V94.7613L187.896 93.5555C184.761 87.9665 180.917 86.8317 168.108 83.7535C161.866 82.264 157.653 80.2639 154.859 77.4978C152.277 74.9161 150.83 71.6534 150.178 66.9156L150.021 65.7949L150.802 66.6177C154.022 70.0647 158.518 70.93 164.207 72.0081C166.264 72.4053 168.604 72.845 171.072 73.455C176.874 74.8877 181.101 77.1148 183.995 80.2781C187.073 83.6258 188.563 87.9098 188.577 93.3711ZM187.825 92.0377C187.357 82.5761 181.938 76.8736 170.902 74.1642C168.448 73.5543 166.122 73.1145 164.079 72.7173C158.689 71.696 154.348 70.8591 151.057 67.8802C152.291 75.1856 155.767 80.0511 168.278 83.0584C180.151 85.8955 184.619 87.1721 187.825 92.0377Z" fill="#052D10"/>
<path d="M104.842 132.437C101.182 139.913 82.7697 140.225 78.9539 131.983C74.8827 123.146 80.8121 88.4345 93.664 89.7112C108.105 91.1439 107.949 126.082 104.842 132.437Z" fill="#CFD348"/>
<path d="M82.9395 98.7473C83.0388 98.648 83.1381 98.4352 83.1381 98.4352C85.1807 95.3002 86.5851 93.1724 89.0533 91.4844C90.713 90.3638 92.5287 89.9666 95.6778 90.151C95.0395 89.9382 94.3728 89.7822 93.6635 89.7112C89.2093 89.2715 85.5921 93.1441 82.9395 98.7473Z" fill="#104E1D"/>
<path d="M104.842 133.118C101.182 139.7 82.7697 139.984 78.9539 132.707C74.8827 124.919 80.8121 94.3356 93.664 95.4563C108.105 96.7188 107.949 127.515 104.842 133.118Z" fill="black"/>
<path d="M104.502 133.388C100.942 139.615 83.0116 139.884 79.3092 132.99C75.3373 125.628 81.1107 96.6761 93.6222 97.74C107.68 98.9316 107.538 128.082 104.502 133.388Z" fill="white"/>
<path d="M99.8341 100.719C107.537 108.521 106.998 129.018 104.501 133.387C100.941 139.615 83.0103 139.884 79.308 132.99C79.0101 132.437 78.7689 131.77 78.5703 131.004C83.2089 135.118 94.2876 136.494 99.3801 129.33C104.927 121.543 102.614 106.889 99.8341 100.719Z" fill="#DFDFDF"/>
<path fill-rule="evenodd" clip-rule="evenodd" d="M102.814 104.308C107.637 113.471 107.112 129.543 104.814 133.558C103.921 135.132 102.119 136.423 99.5942 137.303C97.4096 138.055 94.7286 138.466 92.0334 138.466C91.9199 138.466 91.8112 138.466 91.7072 138.466C86.8984 138.409 81.0398 136.976 78.983 133.161C76.1743 127.94 78.0609 112.294 83.8627 103.442C86.6714 99.1727 90.0475 97.0733 93.6505 97.3853C97.4948 97.6974 100.573 100.038 102.814 104.308ZM102.176 104.648C100.062 100.605 97.1685 98.4067 93.5938 98.0946C89.395 97.74 86.3168 101.031 84.4727 103.84C81.8768 107.783 79.8624 113.571 78.9262 119.685C78.0609 125.387 78.3304 130.423 79.6213 132.82C81.5363 136.366 87.1253 137.686 91.7072 137.742C97.5799 137.813 102.587 135.998 104.19 133.203C106.148 129.77 107.155 114.124 102.176 104.648Z" fill="black"/>
<path d="M102.97 122.153C102.97 129.316 99.3241 135.118 94.8274 135.118C90.3307 135.118 86.6992 129.316 86.6992 122.153C86.6992 115.003 90.3307 109.188 94.8274 109.188C99.3241 109.188 102.97 115.003 102.97 122.153Z" fill="#D0F346"/>
<path d="M102.97 122.153C102.97 129.317 99.3241 135.119 94.8274 135.119C90.3307 135.119 86.6992 129.317 86.6992 122.153C89.7349 130.253 99.3525 131.161 102.97 122.153Z" fill="#E6FF83"/>
<path d="M100.486 123.486C100.486 128.465 97.9611 132.508 94.8262 132.508C91.7054 132.508 89.1663 128.465 89.1663 123.486C89.1663 118.507 91.7054 114.464 94.8262 114.464C97.9611 114.464 100.486 118.507 100.486 123.486Z" fill="black"/>
<path d="M93.068 117.301C93.068 118.082 92.4297 118.72 91.6353 118.72C90.8551 118.72 90.2168 118.082 90.2168 117.301C90.2168 116.507 90.8551 115.869 91.6353 115.869C92.4297 115.869 93.068 116.507 93.068 117.301Z" fill="white"/>
<path d="M98.5863 129.444C98.5863 129.798 98.3026 130.096 97.9338 130.096C97.5791 130.096 97.2812 129.798 97.2812 129.444C97.2812 129.089 97.5791 128.791 97.9338 128.791C98.3026 128.791 98.5863 129.089 98.5863 129.444Z" fill="white"/>
<path fill-rule="evenodd" clip-rule="evenodd" d="M103.326 122.153C103.326 129.501 99.5243 135.487 94.829 135.487C90.1479 135.487 86.332 129.501 86.332 122.153C86.332 114.805 90.1479 108.833 94.829 108.833C99.5243 108.833 103.326 114.805 103.326 122.153ZM102.617 122.153C102.617 115.202 99.1272 109.556 94.829 109.556C90.5451 109.556 87.0555 115.202 87.0555 122.153C87.0555 129.104 90.5451 134.764 94.829 134.764C99.1272 134.764 102.617 129.104 102.617 122.153Z" fill="#0C243E"/>
<path d="M186.649 131.076C183.529 140.424 159.456 145.8 150.463 134.963C145.228 128.65 145.725 88.8038 163.485 87.2434C181.685 85.6546 188.891 124.338 186.649 131.076Z" fill="#CFD348"/>
<path d="M163.485 87.243C162.35 87.3423 161.286 87.5977 160.279 87.9949C164.166 87.5835 166.89 87.7537 169.869 89.2148C173.23 90.8745 176.607 94.974 179.444 98.7189C175.628 91.754 170.337 86.6473 163.485 87.243Z" fill="#104E1D"/>
<path d="M186.647 131.076C183.526 140.424 159.454 145.8 150.461 134.962C145.226 128.65 146.12 94.506 163.922 93.4846C181.966 92.4491 188.888 124.338 186.647 131.076Z" fill="black"/>
<path d="M186.152 131.331C183.116 140.438 159.654 145.673 150.901 135.119C145.795 128.962 147.355 95.9674 164.718 95.939C180.832 95.8965 188.336 124.764 186.152 131.331Z" fill="white"/>
<path d="M186.151 131.331C183.116 140.438 159.653 145.672 150.901 135.118C150.518 134.65 150.163 134.04 149.865 133.303C158.22 139.118 173.739 140.537 179.442 129.43C184.165 120.238 178.633 103.982 172.562 98.4067C183.215 105.542 187.953 125.94 186.151 131.331Z" fill="#DFDFDF"/>
<path fill-rule="evenodd" clip-rule="evenodd" d="M185.585 119.457C186.904 124.592 187.245 129.174 186.493 131.444C185.074 135.7 179.315 139.359 171.797 140.778C169.953 141.118 167.939 141.317 165.896 141.317C160.236 141.317 154.278 139.756 150.618 135.345C147.044 131.047 146.859 115.443 151.555 105.414C154.562 98.988 159.115 95.5835 164.719 95.5693C164.728 95.5693 164.737 95.5693 164.747 95.5693C169.854 95.5693 174.662 98.4773 178.634 103.981C181.613 108.109 184.081 113.599 185.585 119.457ZM178.053 104.407C174.208 99.1015 169.612 96.2928 164.747 96.2928C164.737 96.2928 164.728 96.2928 164.719 96.2928C158.023 96.307 154.221 101.428 152.207 105.712C150.051 110.322 148.774 116.521 148.703 122.692C148.647 128.309 149.597 132.976 151.172 134.891C155.952 140.636 164.889 141.331 171.669 140.069C178.804 138.721 184.493 135.16 185.812 131.217C187.259 126.876 184.351 113.131 178.053 104.407Z" fill="black"/>
<path d="M175.966 121.302C175.966 129.558 171.285 136.239 165.498 136.239C159.724 136.239 155.043 129.558 155.043 121.302C155.043 113.046 159.724 106.351 165.498 106.351C171.285 106.351 175.966 113.046 175.966 121.302Z" fill="#D0F346"/>
<path d="M175.966 121.302C175.966 129.558 171.285 136.239 165.498 136.239C159.724 136.239 155.043 129.558 155.043 121.302C159.596 132.153 171.214 132.735 175.966 121.302Z" fill="#E6FF83"/>
<path d="M173.075 122.962C173.075 128.919 169.685 133.771 165.5 133.771C161.33 133.771 157.939 128.919 157.939 122.962C157.939 116.99 161.33 112.152 165.5 112.152C169.685 112.152 173.075 116.99 173.075 122.962Z" fill="black"/>
<path d="M163.245 114.734C163.245 115.741 162.437 116.564 161.43 116.564C160.422 116.564 159.6 115.741 159.6 114.734C159.6 113.727 160.422 112.918 161.43 112.918C162.437 112.918 163.245 113.727 163.245 114.734Z" fill="white"/>
<path d="M170.138 130.309C170.138 130.706 169.812 131.032 169.415 131.032C169.017 131.032 168.691 130.706 168.691 130.309C168.691 129.912 169.017 129.586 169.415 129.586C169.812 129.586 170.138 129.912 170.138 130.309Z" fill="white"/>
<path fill-rule="evenodd" clip-rule="evenodd" d="M176.337 121.302C176.337 129.742 171.471 136.608 165.499 136.608C159.541 136.608 154.676 129.742 154.676 121.302C154.676 112.862 159.541 105.996 165.499 105.996C171.471 105.996 176.337 112.862 176.337 121.302ZM175.613 121.302C175.613 113.259 171.074 106.72 165.499 106.72C159.939 106.72 155.399 113.259 155.399 121.302C155.399 129.345 159.939 135.884 165.499 135.884C171.074 135.884 175.613 129.345 175.613 121.302Z" fill="#0C243E"/>
<path d="M124.985 157.843C122.204 158.893 118.332 158.907 114.332 157.857C109.097 156.481 104.303 153.432 104.402 148.467C104.501 143.672 107.253 140.849 111.055 139.7C105.806 143.601 106.899 149.119 108.814 151.545C112.275 155.914 118.772 157.744 124.985 157.843Z" fill="#CFD348"/>
<path d="M104.772 148.481C104.715 150.864 105.85 152.935 108.134 154.651C112.645 158.027 120.901 159.148 124.986 157.843C124.986 157.843 123.823 159.077 120.901 159.077C119.596 159.077 118.177 158.964 116.745 158.737C113.141 158.141 109.936 156.893 107.694 155.219C105.254 153.403 103.992 151.062 104.049 148.467C104.12 144.878 105.652 142.097 108.475 140.424C111.297 138.764 115.184 138.352 119.213 139.104C124.022 140.097 125.412 142.055 125.412 142.055C119.653 139.005 112.985 138.608 108.843 141.048C106.247 142.58 104.829 145.147 104.772 148.481Z" fill="#104E1D"/>
<path d="M103.627 170.412C102.78 171.444 103.409 172.67 103.409 172.67C103.409 172.67 103.493 171.713 104.181 170.876C104.869 170.024 106.351 169.621 106.365 169.621C106.365 169.621 104.46 169.381 103.627 170.412Z" fill="#104E1D"/>
<path d="M141.853 166.234C141.868 166.248 143.4 167.028 143.839 168.305C144.322 169.652 144.151 171.128 144.151 171.142C144.151 171.142 145.059 169.567 144.52 168.064C143.981 166.503 141.853 166.234 141.853 166.234Z" fill="#104E1D"/>
<path d="M125.106 176.254C135.855 175.112 143.995 168.884 144.073 168.818L143.628 168.252C143.548 168.303 135.567 174.415 125.03 175.535C117.06 176.382 108.194 173.358 105.112 170.932L104.673 171.507C106.323 172.801 109.451 174.18 112.83 175.105C115.784 175.918 120.31 176.764 125.106 176.254Z" fill="#104E1D"/>
<path d="M130.945 179.82C126.936 182.611 122.702 182.616 119.61 179.844C119.61 179.844 120.448 182.441 124.793 182.658C129.023 182.852 130.945 179.82 130.945 179.82Z" fill="#104E1D"/>
</svg>
