<svg width="131" height="110" viewBox="0 0 131 110" fill="none" xmlns="http://www.w3.org/2000/svg">
<path fill-rule="evenodd" clip-rule="evenodd" d="M89.287 0.541463C89.0528 0.839188 86.789 3.65309 84.2564 6.79453L79.6517 12.5061L79.651 18.1753L79.6504 23.8444L84.6454 23.8721L89.6402 23.8998L84.6501 30.0757L79.6599 36.2517L79.6553 40.0851L79.6507 43.9184L84.6633 47.459L89.6759 50.9995H107.641C127.388 50.9995 126.11 51.0415 127.488 50.3479C128.322 49.9284 129.531 48.7213 129.943 47.8968C130.584 46.613 130.547 48.0084 130.545 25.5502C130.544 11.7758 130.507 4.78702 130.434 4.46672C129.995 2.55302 128.444 0.931295 126.396 0.244271C125.837 0.0567554 124.987 0.046746 107.762 0.0239588L89.713 0L89.287 0.541463Z" fill="#30A54A"/>
<path d="M0.294957 3.88535C1.03948 1.91181 2.79175 0.45353 4.831 0.110551C5.13341 0.059652 19.6235 0.0249387 37.1114 0.0330314C67.6527 0.0473 68.8651 0.0551798 69.4288 0.244292C71.4318 0.916409 72.8604 2.36489 73.4442 4.31575C73.6208 4.9063 73.6346 6.07761 73.6618 22.8973L73.6909 40.8487L70.1061 45.9242L66.5212 50.9996H63.5245H60.5276L57.8572 48.8434L51.6914 43.8653C49.769 42.3133 48.1578 41.0276 48.1111 41.0081C48.0642 40.9885 48.0259 43.2287 48.0259 45.9861V50.9996L38.6821 50.9954L29.3382 50.9911L23.1641 45.9998C19.7682 43.2545 16.9533 41.031 16.9087 41.0585C16.864 41.0862 16.8392 43.3342 16.8536 46.0542L16.8798 50.9996L14.6437 50.9942L12.4075 50.9888L6.20377 45.9734L0 40.9579L0.0277921 22.739L0.0555841 4.52009L0.294957 3.88535Z" fill="#F29400"/>
<path d="M11.968 109.656C10.688 109.656 9.70667 109.315 9.024 108.632C8.34133 107.907 8 106.883 8 105.56V81.544C8 80.2213 8.34133 79.2187 9.024 78.536C9.70667 77.8533 10.688 77.512 11.968 77.512C13.248 77.512 14.2293 77.8533 14.912 78.536C15.6373 79.2187 16 80.2213 16 81.544V91.16H16.128L26.688 80.024C27.5413 79.1707 28.288 78.5093 28.928 78.04C29.568 77.5707 30.4427 77.336 31.552 77.336C32.6613 77.336 33.4933 77.6347 34.048 78.232C34.6453 78.7867 34.944 79.4693 34.944 80.28C34.944 81.0907 34.56 81.9013 33.792 82.712L22.656 94.488V91.16L34.88 104.344C35.648 105.155 35.9893 105.987 35.904 106.84C35.8613 107.651 35.52 108.333 34.88 108.888C34.24 109.4 33.4293 109.656 32.448 109.656C31.2533 109.656 30.2933 109.421 29.568 108.952C28.8853 108.483 28.1173 107.779 27.264 106.84L16.128 95.192H16V105.56C16 108.291 14.656 109.656 11.968 109.656Z" fill="black"/>
<path d="M46.2805 109.592C45.0005 109.592 44.0192 109.208 43.3365 108.44C42.6538 107.672 42.3125 106.605 42.3125 105.24V81.752C42.3125 80.344 42.6538 79.2773 43.3365 78.552C44.0192 77.784 45.0005 77.4 46.2805 77.4C47.5605 77.4 48.5418 77.784 49.2245 78.552C49.9498 79.2773 50.3125 80.344 50.3125 81.752V105.24C50.3125 106.605 49.9712 107.672 49.2885 108.44C48.6058 109.208 47.6032 109.592 46.2805 109.592ZM46.2805 71.448C44.7872 71.448 43.6138 71.0853 42.7605 70.36C41.9498 69.592 41.5445 68.5467 41.5445 67.224C41.5445 65.8587 41.9498 64.8133 42.7605 64.088C43.6138 63.3627 44.7872 63 46.2805 63C47.8165 63 48.9898 63.3627 49.8005 64.088C50.6112 64.8133 51.0165 65.8587 51.0165 67.224C51.0165 68.5467 50.6112 69.592 49.8005 70.36C48.9898 71.0853 47.8165 71.448 46.2805 71.448Z" fill="black"/>
<path d="M70.657 109.784C67.9263 109.784 65.5157 109.123 63.425 107.8C61.377 106.477 59.777 104.6 58.625 102.168C57.473 99.6933 56.897 96.792 56.897 93.464C56.897 90.0933 57.473 87.2133 58.625 84.824C59.777 82.392 61.377 80.5147 63.425 79.192C65.5157 77.8693 67.9263 77.208 70.657 77.208C73.2597 77.208 75.521 77.848 77.441 79.128C79.4037 80.408 80.7263 82.0933 81.409 84.184H80.705V67.544C80.705 66.2213 81.0463 65.2187 81.729 64.536C82.4117 63.8533 83.393 63.512 84.673 63.512C85.953 63.512 86.9343 63.8533 87.617 64.536C88.3423 65.2187 88.705 66.2213 88.705 67.544V105.56C88.705 106.883 88.3637 107.907 87.681 108.632C86.9983 109.315 86.017 109.656 84.737 109.656C83.457 109.656 82.4757 109.315 81.793 108.632C81.1103 107.907 80.769 106.883 80.769 105.56V100.568L81.473 102.488C80.833 104.707 79.5317 106.477 77.569 107.8C75.6063 109.123 73.3023 109.784 70.657 109.784ZM72.897 103.704C74.4757 103.704 75.8623 103.32 77.057 102.552C78.2517 101.784 79.169 100.653 79.809 99.16C80.4917 97.624 80.833 95.7253 80.833 93.464C80.833 90.0507 80.1077 87.512 78.657 85.848C77.2063 84.1413 75.2863 83.288 72.897 83.288C71.3183 83.288 69.9317 83.672 68.737 84.44C67.5423 85.1653 66.6037 86.296 65.921 87.832C65.281 89.3253 64.961 91.2027 64.961 93.464C64.961 96.8347 65.6863 99.3947 67.137 101.144C68.5877 102.851 70.5077 103.704 72.897 103.704Z" fill="black"/>
<path d="M108.456 109.784C106.621 109.784 104.68 109.592 102.632 109.208C100.584 108.824 98.7493 108.163 97.128 107.224C96.4453 106.797 95.9547 106.307 95.656 105.752C95.4 105.155 95.2933 104.579 95.336 104.024C95.4213 103.427 95.6347 102.915 95.976 102.488C96.36 102.061 96.8293 101.784 97.384 101.656C97.9813 101.528 98.6213 101.635 99.304 101.976C101.011 102.787 102.611 103.363 104.104 103.704C105.597 104.003 107.069 104.152 108.52 104.152C110.568 104.152 112.083 103.811 113.064 103.128C114.088 102.403 114.6 101.464 114.6 100.312C114.6 99.3307 114.259 98.584 113.576 98.072C112.936 97.5173 111.955 97.112 110.632 96.856L104.232 95.64C101.587 95.128 99.56 94.168 98.152 92.76C96.7867 91.3093 96.104 89.4533 96.104 87.192C96.104 85.144 96.6587 83.3733 97.768 81.88C98.92 80.3867 100.499 79.2347 102.504 78.424C104.509 77.6133 106.813 77.208 109.416 77.208C111.293 77.208 113.043 77.4213 114.664 77.848C116.328 78.232 117.928 78.8507 119.464 79.704C120.104 80.0453 120.531 80.4933 120.744 81.048C121 81.6027 121.064 82.1787 120.936 82.776C120.808 83.3307 120.552 83.8427 120.168 84.312C119.784 84.7387 119.293 85.016 118.696 85.144C118.141 85.2293 117.501 85.1013 116.776 84.76C115.453 84.0773 114.173 83.5867 112.936 83.288C111.741 82.9893 110.589 82.84 109.48 82.84C107.389 82.84 105.832 83.2027 104.808 83.928C103.827 84.6533 103.336 85.6133 103.336 86.808C103.336 87.704 103.635 88.4507 104.232 89.048C104.829 89.6453 105.747 90.0507 106.984 90.264L113.384 91.48C116.157 91.992 118.248 92.9307 119.656 94.296C121.107 95.6613 121.832 97.496 121.832 99.8C121.832 102.915 120.616 105.368 118.184 107.16C115.752 108.909 112.509 109.784 108.456 109.784Z" fill="black"/>
</svg>
