<svg width="128" height="128" viewBox="0 0 128 128" fill="none" xmlns="http://www.w3.org/2000/svg">
<path d="M117.506 64.0001C117.506 93.4966 93.4977 117.505 64.0012 117.505C34.4726 117.505 10.4646 93.4966 10.4646 64.0001C10.4646 34.5036 34.4726 10.4956 64.0012 10.4956C93.4977 10.4956 117.506 34.5036 117.506 64.0001Z" fill="#E9B522"/>
<path fill-rule="evenodd" clip-rule="evenodd" d="M64 128C28.6941 128 0 99.3059 0 64C0 28.7262 28.6941 0 64 0C99.2738 0 128 28.7262 128 64C128 99.3059 99.2738 128 64 128ZM64 10.4955C34.4714 10.4955 10.4634 34.5035 10.4634 64C10.4634 93.4965 34.4714 117.505 64 117.505C93.4965 117.505 117.505 93.4965 117.505 64C117.505 34.5035 93.4965 10.4955 64 10.4955Z" fill="#F7DE61"/>
<path d="M65.9258 127.968C65.2838 127.989 64.6419 128 64 128C28.6941 128 0 99.3059 0 64C0 28.7262 28.6941 0 64 0C64.6419 0 65.2838 0.0107007 65.9258 0.0320982C31.5506 1.05918 3.88365 29.3681 3.88365 64C3.88365 98.6319 31.5506 126.941 65.9258 127.968Z" fill="#FFF2BD"/>
<path d="M117.503 64.0001C117.503 93.4966 93.4953 117.505 63.9988 117.505C63.4211 117.505 62.8434 117.494 62.2656 117.473C90.9918 116.574 114.069 92.9189 114.069 64.0001C114.069 35.0814 90.9918 11.4264 62.2656 10.5277C62.8434 10.5063 63.4211 10.4956 63.9988 10.4956C93.4953 10.4956 117.503 34.5036 117.503 64.0001Z" fill="#CE9811"/>
<path fill-rule="evenodd" clip-rule="evenodd" d="M27.3904 70.1427C26.532 70.9814 25.382 71.5089 23.9405 71.7251V74.2511H21.6209V71.7645C20.6052 71.6924 19.6617 71.4958 18.7902 71.1747C17.9187 70.8602 17.1553 70.4277 16.5001 69.8773L17.5026 67.7346C18.8262 68.7699 20.2514 69.34 21.7781 69.4449V64.7074C20.7625 64.4518 19.9074 64.1701 19.2128 63.8621C18.5117 63.5476 17.9252 63.0823 17.4535 62.4664C16.9882 61.857 16.7556 61.0576 16.7556 60.0682C16.7556 59.2491 16.9587 58.5021 17.365 57.8272C17.7778 57.1523 18.3512 56.5921 19.085 56.1465C19.8189 55.6944 20.6642 55.4093 21.6209 55.2914V52.7654H23.9405V55.2619C24.8251 55.3733 25.654 55.5862 26.4272 55.9008C27.2003 56.2218 27.8523 56.6248 28.3831 57.1097L27.3805 59.2524C26.2732 58.3416 25.0741 57.7945 23.7832 57.611V62.545C24.7988 62.8071 25.6408 63.0856 26.3092 63.3805C26.9776 63.6754 27.5411 64.1177 27.9998 64.7074C28.4519 65.3037 28.6779 66.0801 28.6779 67.0368C28.6779 68.2621 28.2488 69.2974 27.3904 70.1427ZM20.235 61.1985C20.6019 61.5196 21.1163 61.7948 21.7781 62.0241V57.6306C21.1294 57.7682 20.6183 58.0336 20.2448 58.4268C19.8713 58.8265 19.6846 59.3212 19.6846 59.9109C19.6846 60.4417 19.8681 60.8709 20.235 61.1985ZM25.2477 68.5701C25.5753 68.1966 25.7391 67.715 25.7391 67.1253C25.7391 66.6535 25.5753 66.2734 25.2477 65.9851C24.9135 65.6968 24.4254 65.4544 23.7832 65.2578V69.3367C24.4254 69.1991 24.9135 68.9436 25.2477 68.5701Z" fill="#CE9811"/>
<path fill-rule="evenodd" clip-rule="evenodd" d="M26.9568 69.464C26.0984 70.3093 24.9484 70.8368 23.5069 71.0464V73.5724H21.1873V71.0956C20.1716 71.0169 19.2281 70.8204 18.3566 70.5058C17.4851 70.1848 16.7217 69.7523 16.0665 69.2084L17.069 67.0658C18.3861 68.0945 19.8112 68.6646 21.3445 68.776V64.0385C20.3289 63.7764 19.4738 63.4914 18.7792 63.1834C18.0781 62.8689 17.4916 62.4069 17.0199 61.7975C16.5546 61.1816 16.322 60.3789 16.322 59.3895C16.322 58.5704 16.5251 57.8234 16.9314 57.1485C17.3442 56.4736 17.9176 55.9133 18.6514 55.4678C19.3853 55.0222 20.2306 54.7372 21.1873 54.6127V52.0867H23.5069V54.593C24.3915 54.6979 25.2204 54.9108 25.9936 55.2319C26.7668 55.5464 27.4187 55.9461 27.9495 56.431L26.947 58.5737C25.8396 57.6629 24.6405 57.1157 23.3496 56.9323V61.8762C24.3653 62.1317 25.2073 62.4069 25.8756 62.7018C26.544 62.9966 27.1075 63.4422 27.5662 64.0385C28.0183 64.6282 28.2444 65.4014 28.2444 66.3581C28.2444 67.59 27.8152 68.6253 26.9568 69.464ZM24.8043 67.8914C25.1385 67.5244 25.3055 67.0428 25.3055 66.4466C25.3055 65.9813 25.1385 65.6045 24.8043 65.3162C24.4701 65.0279 23.9852 64.7822 23.3496 64.5791V68.658C23.9852 68.5204 24.4701 68.2649 24.8043 67.8914ZM19.8014 60.5198C20.1618 60.8474 20.6762 61.1259 21.3445 61.3552V56.9618C20.6958 57.0928 20.1847 57.3582 19.8112 57.7579C19.4377 58.151 19.251 58.6425 19.251 59.2322C19.251 59.763 19.4345 60.1922 19.8014 60.5198Z" fill="#F7DE61"/>
<path fill-rule="evenodd" clip-rule="evenodd" d="M35.152 97.8484C34.2937 98.6871 33.1437 99.2146 31.7021 99.4308V101.957H29.3825V99.4701C28.3669 99.3981 27.4233 99.2015 26.5518 98.8804C25.6803 98.5659 24.917 98.1334 24.2617 97.583L25.2643 95.4403C26.5879 96.4756 28.013 97.0457 29.5398 97.1505V92.4131C28.5241 92.1575 27.669 91.8758 26.9745 91.5678C26.2733 91.2533 25.6869 90.788 25.2151 90.1721C24.7499 89.5627 24.5173 88.7633 24.5173 87.7739C24.5173 86.9548 24.7204 86.2078 25.1267 85.5329C25.5395 84.858 26.1128 84.2978 26.8467 83.8522C27.5806 83.4001 28.4259 83.115 29.3825 82.9971V80.4711H31.7021V82.9676C32.5867 83.079 33.4156 83.2919 34.1888 83.6065C34.962 83.9275 35.614 84.3305 36.1447 84.8154L35.1422 86.9581C34.0348 86.0473 32.8357 85.5001 31.5449 85.3167V90.2507C32.5605 90.5128 33.4025 90.7913 34.0709 91.0862C34.7392 91.381 35.3027 91.8233 35.7614 92.4131C36.2135 93.0093 36.4396 93.7858 36.4396 94.7425C36.4396 95.9678 36.0104 97.0031 35.152 97.8484ZM27.9967 88.9042C28.3636 89.2253 28.878 89.5005 29.5398 89.7298V85.3363C28.8911 85.4739 28.38 85.7393 28.0065 86.1325C27.633 86.5322 27.4463 87.0269 27.4463 87.6166C27.4463 88.1474 27.6297 88.5766 27.9967 88.9042ZM33.0094 96.2758C33.337 95.9023 33.5008 95.4207 33.5008 94.8309C33.5008 94.3592 33.337 93.9791 33.0094 93.6908C32.6752 93.4025 32.187 93.1601 31.5449 92.9635V97.0424C32.187 96.9048 32.6752 96.6493 33.0094 96.2758Z" fill="#CE9811"/>
<path fill-rule="evenodd" clip-rule="evenodd" d="M34.7184 97.1696C33.8601 98.0148 32.7101 98.5423 31.2685 98.752V101.278H28.9489V98.8011C27.9333 98.7225 26.9897 98.5259 26.1182 98.2114C25.2468 97.8903 24.4834 97.4579 23.8281 96.914L24.8307 94.7713C26.1477 95.8001 27.5729 96.3702 29.1062 96.4815V91.7441C28.0905 91.482 27.2354 91.1969 26.5409 90.889C25.8398 90.5744 25.2533 90.1125 24.7815 89.5031C24.3163 88.8872 24.0837 88.0845 24.0837 87.095C24.0837 86.276 24.2868 85.529 24.6931 84.8541C25.1059 84.1792 25.6792 83.6189 26.4131 83.1733C27.147 82.7278 27.9923 82.4427 28.9489 82.3182V79.7922H31.2685V82.2986C32.1531 82.4034 32.982 82.6164 33.7552 82.9375C34.5284 83.252 35.1804 83.6517 35.7111 84.1366L34.7086 86.2792C33.6012 85.3684 32.4021 84.8213 31.1113 84.6378V89.5817C32.1269 89.8373 32.9689 90.1125 33.6373 90.4073C34.3056 90.7022 34.8691 91.1478 35.3278 91.7441C35.7799 92.3338 36.006 93.107 36.006 94.0637C36.006 95.2955 35.5768 96.3308 34.7184 97.1696ZM32.5659 95.597C32.9001 95.23 33.0672 94.7484 33.0672 94.1521C33.0672 93.6869 32.9001 93.3101 32.5659 93.0218C32.2318 92.7335 31.7469 92.4878 31.1113 92.2846V96.3636C31.7469 96.226 32.2318 95.9704 32.5659 95.597ZM27.5631 88.2253C27.9235 88.553 28.4378 88.8315 29.1062 89.0608V84.6673C28.4575 84.7984 27.9464 85.0638 27.5729 85.4635C27.1994 85.8566 27.0127 86.348 27.0127 86.9378C27.0127 87.4685 27.1961 87.8977 27.5631 88.2253Z" fill="#F7DE61"/>
<path d="M56.7221 32.6989C56.481 37.0325 54.7007 39.6496 48.5869 41.6498C42.5014 43.6357 40.4091 44.3946 39.0118 47.4232C38.5792 41.9902 41.4233 38.7772 46.8066 36.9828C51.353 35.465 54.6795 35.2735 56.7221 32.6989Z" fill="#146A31"/>
<path d="M56.7259 32.6989C56.4848 37.0325 54.7045 39.6496 48.5907 41.6498C42.5052 43.6357 40.4129 44.3946 39.0156 47.4232C39.4057 43.3733 41.7108 41.5221 47.0941 39.7277C51.6405 38.2098 54.9599 37.0537 56.7259 32.6989Z" fill="#044512"/>
<path fill-rule="evenodd" clip-rule="evenodd" d="M56.5811 32.5854L56.9357 32.1385L56.9002 32.706C56.7726 35.0962 56.1839 36.7842 54.9923 38.1673C53.7156 39.6638 51.6942 40.827 48.6444 41.82C42.3816 43.8698 40.5162 44.5861 39.1757 47.5012L38.8849 48.1325L38.8282 47.4374C38.6154 44.7138 39.1899 42.5222 40.5872 40.7277C41.9064 39.0326 43.9207 37.7559 46.7507 36.8126C47.9635 36.4083 49.1054 36.0892 50.1126 35.8125C52.9071 35.0394 55.1129 34.4295 56.5811 32.5854ZM56.5031 33.2237C54.9781 34.8408 52.8504 35.4295 50.2119 36.1601C49.2047 36.4367 48.0628 36.7559 46.8642 37.153C41.4737 38.9475 39.0055 42.0044 39.1545 46.7423C40.5588 44.189 42.7291 43.3733 48.5309 41.4796C54.6448 39.4794 56.1839 36.919 56.5031 33.2237Z" fill="#052D10"/>
<path d="M94.1037 46.6857C92.4724 43.7777 90.3162 43.1961 84.096 41.6996C77.8403 40.203 75.8543 37.7348 75.2656 33.4366C77.514 35.834 80.8404 35.763 85.4932 36.9049C91.0042 38.2596 94.1037 41.2315 94.1037 46.6857Z" fill="#146A31"/>
<path d="M94.1037 46.6857C92.4724 43.7777 90.3162 43.1961 84.096 41.6996C77.8403 40.203 75.8543 37.7348 75.2656 33.4366C77.1594 37.522 80.4787 38.5079 85.1386 39.6498C90.6496 41.0045 92.8979 41.5648 94.1037 46.6857Z" fill="#044512"/>
<path fill-rule="evenodd" clip-rule="evenodd" d="M94.2856 46.6854V47.3805L93.9452 46.7776C92.3777 43.9831 90.4556 43.4157 84.0509 41.8766C80.9302 41.1319 78.8237 40.1318 77.4264 38.7488C76.1355 37.4579 75.4121 35.8266 75.0858 33.4577L75.0078 32.8973L75.3979 33.3087C77.0079 35.0322 79.2563 35.4649 82.1004 36.0039C83.1289 36.2025 84.2992 36.4224 85.5333 36.7274C88.4342 37.4437 90.5478 38.5573 91.9947 40.1389C93.5338 41.8128 94.2785 43.9548 94.2856 46.6854ZM93.9097 46.0187C93.6756 41.2879 90.9663 38.4367 85.4482 37.082C84.2212 36.777 83.058 36.5571 82.0366 36.3585C79.3414 35.8479 77.1711 35.4294 75.5256 33.94C76.1426 37.5927 77.8803 40.0254 84.136 41.5291C90.0726 42.9476 92.3068 43.5859 93.9097 46.0187Z" fill="#052D10"/>
<path d="M52.419 66.2188C50.5891 69.9566 41.3829 70.1127 39.475 65.9919C37.4394 61.5731 40.4041 44.2174 46.83 44.8558C54.0504 45.5721 53.9723 63.0413 52.419 66.2188Z" fill="#CFD348"/>
<path d="M41.4648 49.3736C41.5145 49.324 41.5641 49.2176 41.5641 49.2176C42.5855 47.6501 43.2877 46.5862 44.5218 45.7422C45.3516 45.1819 46.2595 44.9833 47.834 45.0755C47.5149 44.9691 47.1815 44.8911 46.8269 44.8556C44.5998 44.6357 42.7912 46.572 41.4648 49.3736Z" fill="#104E1D"/>
<path d="M52.419 66.5592C50.5891 69.8502 41.3829 69.9921 39.475 66.3535C37.4394 62.4597 40.4041 47.1679 46.83 47.7283C54.0504 48.3595 53.9723 63.7576 52.419 66.5592Z" fill="black"/>
<path d="M52.2482 66.6939C50.4679 69.8076 41.5029 69.9424 39.6517 66.4953C37.6657 62.8142 40.5524 48.3382 46.8081 48.8701C53.837 49.4659 53.766 64.0413 52.2482 66.6939Z" fill="white"/>
<path d="M49.9131 50.3595C53.7644 54.2604 53.4949 64.5093 52.2466 66.6938C50.4663 69.8075 41.5013 69.9423 39.6501 66.4953C39.5011 66.2186 39.3805 65.8853 39.2812 65.5023C41.6005 67.5591 47.1399 68.2471 49.6862 64.6654C52.4594 60.7715 51.3033 53.4448 49.9131 50.3595Z" fill="#DFDFDF"/>
<path fill-rule="evenodd" clip-rule="evenodd" d="M51.4042 52.154C53.8157 56.7358 53.5533 64.7718 52.4042 66.779C51.9574 67.5663 51.0566 68.2117 49.7942 68.6515C48.7019 69.0274 47.3614 69.2331 46.0138 69.2331C45.957 69.2331 45.9027 69.2331 45.8507 69.2331C43.4462 69.2047 40.517 68.4883 39.4885 66.5804C38.0842 63.9703 39.0275 56.1472 41.9284 51.7213C43.3328 49.5865 45.0208 48.5368 46.8223 48.6928C48.7444 48.8488 50.2835 50.0191 51.4042 52.154ZM51.085 52.3242C50.0282 50.3028 48.5813 49.2035 46.794 49.0474C44.6945 48.8701 43.1554 50.5156 42.2334 51.9199C40.9355 53.8917 39.9283 56.7855 39.4602 59.8424C39.0275 62.6937 39.1623 65.2115 39.8077 66.4102C40.7652 68.1834 43.5597 68.843 45.8507 68.8713C48.787 68.9068 51.2907 67.999 52.0922 66.6017C53.071 64.8853 53.5745 57.0621 51.085 52.3242Z" fill="black"/>
<path d="M51.4829 61.0765C51.4829 64.6583 49.6601 67.5592 47.4117 67.5592C45.1634 67.5592 43.3477 64.6583 43.3477 61.0765C43.3477 57.5019 45.1634 54.5939 47.4117 54.5939C49.6601 54.5939 51.4829 57.5019 51.4829 61.0765Z" fill="#D0F346"/>
<path d="M51.4829 61.0765C51.4829 64.6583 49.6601 67.5592 47.4117 67.5592C45.1634 67.5592 43.3477 64.6583 43.3477 61.0765C44.8655 65.1264 49.6743 65.5804 51.4829 61.0765Z" fill="#E6FF83"/>
<path d="M50.238 61.7433C50.238 64.2329 48.9756 66.2543 47.4081 66.2543C45.8477 66.2543 44.5781 64.2329 44.5781 61.7433C44.5781 59.2538 45.8477 57.2324 47.4081 57.2324C48.9756 57.2324 50.238 59.2538 50.238 61.7433Z" fill="black"/>
<path d="M46.5311 58.6508C46.5311 59.0409 46.2119 59.3601 45.8147 59.3601C45.4246 59.3601 45.1055 59.0409 45.1055 58.6508C45.1055 58.2536 45.4246 57.9344 45.8147 57.9344C46.2119 57.9344 46.5311 58.2536 46.5311 58.6508Z" fill="white"/>
<path d="M49.2932 64.7221C49.2932 64.8994 49.1513 65.0484 48.9669 65.0484C48.7896 65.0484 48.6406 64.8994 48.6406 64.7221C48.6406 64.5448 48.7896 64.3959 48.9669 64.3959C49.1513 64.3959 49.2932 64.5448 49.2932 64.7221Z" fill="white"/>
<path fill-rule="evenodd" clip-rule="evenodd" d="M51.661 61.0765C51.661 64.7505 49.7602 67.7436 47.4126 67.7436C45.072 67.7436 43.1641 64.7505 43.1641 61.0765C43.1641 57.4025 45.072 54.4165 47.4126 54.4165C49.7602 54.4165 51.661 57.4025 51.661 61.0765ZM51.3064 61.0765C51.3064 57.6011 49.5616 54.7782 47.4126 54.7782C45.2706 54.7782 43.5258 57.6011 43.5258 61.0765C43.5258 64.5519 45.2706 67.3818 47.4126 67.3818C49.5616 67.3818 51.3064 64.5519 51.3064 61.0765Z" fill="#0C243E"/>
<path d="M93.3237 65.5378C91.7634 70.2119 79.7271 72.9 75.2304 67.4812C72.6132 64.325 72.8615 44.4018 81.7415 43.6216C90.8413 42.8272 94.4444 62.1688 93.3237 65.5378Z" fill="#CFD348"/>
<path d="M81.7395 43.6215C81.1721 43.6712 80.6402 43.7988 80.1366 43.9974C82.08 43.7917 83.4418 43.8769 84.9312 44.6074C86.6122 45.4372 88.3002 47.487 89.7188 49.3595C87.8108 45.877 85.1653 43.3236 81.7395 43.6215Z" fill="#104E1D"/>
<path d="M93.3217 65.5378C91.7613 70.2119 79.7251 72.9 75.2283 67.4812C72.6111 64.325 73.058 47.253 81.9592 46.7423C90.9811 46.2245 94.4423 62.1688 93.3217 65.5378Z" fill="black"/>
<path d="M93.071 65.6655C91.5532 70.219 79.822 72.8362 75.4458 67.5593C72.8925 64.481 73.6726 47.9836 82.354 47.9694C90.4113 47.9481 94.1633 62.3816 93.071 65.6655Z" fill="white"/>
<path d="M93.0727 65.6655C91.5548 70.219 79.8236 72.8362 75.4474 67.5592C75.2559 67.3252 75.0786 67.0202 74.9297 66.6514C79.1073 69.5594 86.8666 70.2686 89.7178 64.7151C92.0797 60.1191 89.3136 51.9909 86.2779 49.2035C91.6045 52.7711 93.9734 62.9703 93.0727 65.6655Z" fill="#DFDFDF"/>
<path fill-rule="evenodd" clip-rule="evenodd" d="M92.7914 59.729C93.4511 62.2966 93.6213 64.5875 93.2454 65.7223C92.5361 67.8501 89.6565 69.68 85.8974 70.3893C84.9753 70.5595 83.9682 70.6588 82.9468 70.6588C80.1169 70.6588 77.138 69.8786 75.3081 67.6728C73.5207 65.5237 73.4285 57.7218 75.7762 52.7073C77.2798 49.4944 79.5566 47.7921 82.3582 47.785C82.3629 47.785 82.3676 47.785 82.3723 47.785C84.9257 47.785 87.3301 49.239 89.316 51.991C90.8055 54.0549 92.0396 56.7998 92.7914 59.729ZM89.0252 52.2037C87.1031 49.5511 84.8051 48.1468 82.3723 48.1468C82.3676 48.1468 82.3629 48.1468 82.3582 48.1468C79.0104 48.1538 77.1096 50.7143 76.1024 52.8563C75.0244 55.1614 74.386 58.2609 74.3506 61.3462C74.3222 64.1548 74.7974 66.4883 75.5847 67.4458C77.9749 70.3184 82.4433 70.6659 85.8335 70.0346C89.4011 69.3608 92.2453 67.5806 92.9049 65.6088C93.6284 63.4385 92.1744 56.5657 89.0252 52.2037Z" fill="black"/>
<path d="M87.9812 60.6509C87.9812 64.7789 85.6406 68.1195 82.7468 68.1195C79.8601 68.1195 77.5195 64.7789 77.5195 60.6509C77.5195 56.523 79.8601 53.1753 82.7468 53.1753C85.6406 53.1753 87.9812 56.523 87.9812 60.6509Z" fill="#D0F346"/>
<path d="M87.9812 60.6509C87.9812 64.7788 85.6406 68.1194 82.7468 68.1194C79.8601 68.1194 77.5195 64.7788 77.5195 60.6509C79.7963 66.0767 85.6051 66.3675 87.9812 60.6509Z" fill="#E6FF83"/>
<path d="M86.5327 61.4808C86.5327 64.4597 84.8376 66.8854 82.7452 66.8854C80.66 66.8854 78.9648 64.4597 78.9648 61.4808C78.9648 58.4948 80.66 56.0762 82.7452 56.0762C84.8376 56.0762 86.5327 58.4948 86.5327 61.4808Z" fill="black"/>
<path d="M81.6197 57.3672C81.6197 57.8708 81.2155 58.2822 80.7119 58.2822C80.2083 58.2822 79.7969 57.8708 79.7969 57.3672C79.7969 56.8636 80.2083 56.4594 80.7119 56.4594C81.2155 56.4594 81.6197 56.8636 81.6197 57.3672Z" fill="white"/>
<path d="M85.0672 65.1547C85.0672 65.3533 84.9041 65.5164 84.7055 65.5164C84.5069 65.5164 84.3438 65.3533 84.3438 65.1547C84.3438 64.9561 84.5069 64.793 84.7055 64.793C84.9041 64.793 85.0672 64.9561 85.0672 65.1547Z" fill="white"/>
<path fill-rule="evenodd" clip-rule="evenodd" d="M88.1664 60.651C88.1664 64.8711 85.7336 68.304 82.7476 68.304C79.7687 68.304 77.3359 64.8711 77.3359 60.651C77.3359 56.4309 79.7687 52.998 82.7476 52.998C85.7336 52.998 88.1664 56.4309 88.1664 60.651ZM87.8047 60.651C87.8047 56.6295 85.535 53.3598 82.7476 53.3598C79.9673 53.3598 77.6977 56.6295 77.6977 60.651C77.6977 64.6725 79.9673 67.9422 82.7476 67.9422C85.535 67.9422 87.8047 64.6725 87.8047 60.651Z" fill="#0C243E"/>
<path d="M62.4914 78.9217C61.1012 79.4466 59.1649 79.4537 57.1648 78.9288C54.5476 78.2408 52.1503 76.7159 52.2 74.2335C52.2496 71.8362 53.6256 70.4247 55.5264 69.8502C52.9021 71.8007 53.4483 74.5597 54.4058 75.7726C56.1364 77.9571 59.3848 78.8721 62.4914 78.9217Z" fill="#CFD348"/>
<path d="M52.3822 74.2405C52.3538 75.4321 52.9212 76.4676 54.0631 77.3258C56.3186 79.0139 60.4465 79.5742 62.4892 78.9217C62.4892 78.9217 61.9076 79.5387 60.4465 79.5387C59.794 79.5387 59.0847 79.482 58.3684 79.3685C56.5668 79.0706 54.9639 78.4464 53.8433 77.6095C52.6233 76.7017 51.9921 75.5314 52.0204 74.2334C52.0559 72.439 52.8219 71.0488 54.2333 70.2119C55.6448 69.382 57.5882 69.1764 59.6025 69.5523C62.0069 70.0488 62.702 71.0275 62.702 71.0275C59.8224 69.5026 56.4888 69.304 54.4178 70.524C53.1198 71.29 52.4105 72.5737 52.3822 74.2405Z" fill="#104E1D"/>
<path d="M52.7027 87.8866C53.1566 88.376 52.88 89.0072 52.88 89.0072C52.88 89.0072 52.809 88.532 52.4402 88.1348C52.0714 87.7306 51.3196 87.5745 51.3125 87.5745C51.3125 87.5745 52.2558 87.3972 52.7027 87.8866Z" fill="#104E1D"/>
<path d="M73.247 86.3121C73.2399 86.3192 72.4739 86.7093 72.2541 87.3477C72.0129 88.0215 72.098 88.7591 72.098 88.7662C72.098 88.7662 71.6441 87.9789 71.9136 87.2271C72.1831 86.4469 73.247 86.3121 73.247 86.3121Z" fill="#104E1D"/>
<path d="M62.354 84.4398C67.7586 84.4398 72.1347 87.1067 72.1773 87.135L71.9858 87.44C71.9432 87.4187 67.6522 84.8016 62.354 84.8016C58.3466 84.8016 54.0981 86.7733 52.6938 88.1422L52.4456 87.8798C53.1974 87.1492 54.6797 86.2981 56.311 85.6598C57.7367 85.0994 59.9425 84.4398 62.354 84.4398Z" fill="#104E1D"/>
<path d="M64.4959 90.8017C62.4177 89.5179 60.3041 89.6314 58.8359 91.0996C58.8359 91.0996 59.1835 89.7804 61.3467 89.5534C63.4532 89.3406 64.4959 90.8017 64.4959 90.8017Z" fill="#104E1D"/>
</svg>
